<mxfile host="Electron" agent="Mozilla/5.0 (X11; Linux x86_64) AppleWebKit/537.36 (KHTML, like Gecko) draw.io/26.0.9 Chrome/128.0.6613.186 Electron/32.2.5 Safari/537.36" version="26.0.9">
  <diagram name="Page-1" id="eX2mGc1xsXaxanmaqfp4">
    <mxGraphModel dx="869" dy="508" grid="1" gridSize="10" guides="1" tooltips="1" connect="1" arrows="1" fold="1" page="1" pageScale="1" pageWidth="2336" pageHeight="1654" math="0" shadow="0">
      <root>
        <mxCell id="0" />
        <mxCell id="1" parent="0" />
        <mxCell id="3TpKh58GNLnH1wsVVT6F-79" value="Procurement" style="swimlane;fontStyle=0;childLayout=stackLayout;horizontal=1;startSize=30;horizontalStack=0;resizeParent=1;resizeParentMax=0;resizeLast=0;collapsible=1;marginBottom=0;whiteSpace=wrap;html=1;" parent="1" vertex="1">
          <mxGeometry x="470" y="603.2" width="140" height="150" as="geometry">
            <mxRectangle x="40" y="40" width="110" height="30" as="alternateBounds" />
          </mxGeometry>
        </mxCell>
        <mxCell id="3TpKh58GNLnH1wsVVT6F-80" value="Procurement_id" style="text;strokeColor=none;fillColor=none;align=left;verticalAlign=middle;spacingLeft=4;spacingRight=4;overflow=hidden;points=[[0,0.5],[1,0.5]];portConstraint=eastwest;rotatable=0;whiteSpace=wrap;html=1;fontStyle=4" parent="3TpKh58GNLnH1wsVVT6F-79" vertex="1">
          <mxGeometry y="30" width="140" height="30" as="geometry" />
        </mxCell>
        <mxCell id="3TpKh58GNLnH1wsVVT6F-81" value="Quantity" style="text;strokeColor=none;fillColor=none;align=left;verticalAlign=middle;spacingLeft=4;spacingRight=4;overflow=hidden;points=[[0,0.5],[1,0.5]];portConstraint=eastwest;rotatable=0;whiteSpace=wrap;html=1;" parent="3TpKh58GNLnH1wsVVT6F-79" vertex="1">
          <mxGeometry y="60" width="140" height="30" as="geometry" />
        </mxCell>
        <mxCell id="3TpKh58GNLnH1wsVVT6F-82" value="Order_Date" style="text;strokeColor=none;fillColor=none;align=left;verticalAlign=middle;spacingLeft=4;spacingRight=4;overflow=hidden;points=[[0,0.5],[1,0.5]];portConstraint=eastwest;rotatable=0;whiteSpace=wrap;html=1;" parent="3TpKh58GNLnH1wsVVT6F-79" vertex="1">
          <mxGeometry y="90" width="140" height="30" as="geometry" />
        </mxCell>
        <mxCell id="3TpKh58GNLnH1wsVVT6F-83" value="Delivery_Date" style="text;strokeColor=none;fillColor=none;align=left;verticalAlign=middle;spacingLeft=4;spacingRight=4;overflow=hidden;points=[[0,0.5],[1,0.5]];portConstraint=eastwest;rotatable=0;whiteSpace=wrap;html=1;" parent="3TpKh58GNLnH1wsVVT6F-79" vertex="1">
          <mxGeometry y="120" width="140" height="30" as="geometry" />
        </mxCell>
        <mxCell id="3TpKh58GNLnH1wsVVT6F-85" value="inv_proc" style="shape=rhombus;perimeter=rhombusPerimeter;whiteSpace=wrap;html=1;align=center;" parent="1" vertex="1">
          <mxGeometry x="730" y="648.2" width="120" height="60" as="geometry" />
        </mxCell>
        <mxCell id="3TpKh58GNLnH1wsVVT6F-87" value="Inventory" style="swimlane;fontStyle=0;childLayout=stackLayout;horizontal=1;startSize=30;horizontalStack=0;resizeParent=1;resizeParentMax=0;resizeLast=0;collapsible=1;marginBottom=0;whiteSpace=wrap;html=1;" parent="1" vertex="1">
          <mxGeometry x="950" y="581.2" width="140" height="120" as="geometry">
            <mxRectangle x="390" y="195" width="90" height="30" as="alternateBounds" />
          </mxGeometry>
        </mxCell>
        <mxCell id="3TpKh58GNLnH1wsVVT6F-88" value="&lt;u&gt;Inventory_id&lt;/u&gt;" style="text;strokeColor=none;fillColor=none;align=left;verticalAlign=middle;spacingLeft=4;spacingRight=4;overflow=hidden;points=[[0,0.5],[1,0.5]];portConstraint=eastwest;rotatable=0;whiteSpace=wrap;html=1;" parent="3TpKh58GNLnH1wsVVT6F-87" vertex="1">
          <mxGeometry y="30" width="140" height="30" as="geometry" />
        </mxCell>
        <mxCell id="3TpKh58GNLnH1wsVVT6F-92" value="quantity_in_stock" style="text;strokeColor=none;fillColor=none;align=left;verticalAlign=middle;spacingLeft=4;spacingRight=4;overflow=hidden;points=[[0,0.5],[1,0.5]];portConstraint=eastwest;rotatable=0;whiteSpace=wrap;html=1;" parent="3TpKh58GNLnH1wsVVT6F-87" vertex="1">
          <mxGeometry y="60" width="140" height="30" as="geometry" />
        </mxCell>
        <mxCell id="3TpKh58GNLnH1wsVVT6F-93" value="Reorder_level" style="text;strokeColor=none;fillColor=none;align=left;verticalAlign=middle;spacingLeft=4;spacingRight=4;overflow=hidden;points=[[0,0.5],[1,0.5]];portConstraint=eastwest;rotatable=0;whiteSpace=wrap;html=1;" parent="3TpKh58GNLnH1wsVVT6F-87" vertex="1">
          <mxGeometry y="90" width="140" height="30" as="geometry" />
        </mxCell>
        <mxCell id="3TpKh58GNLnH1wsVVT6F-94" value="Warehouses" style="swimlane;fontStyle=0;childLayout=stackLayout;horizontal=1;startSize=30;horizontalStack=0;resizeParent=1;resizeParentMax=0;resizeLast=0;collapsible=1;marginBottom=0;whiteSpace=wrap;html=1;" parent="1" vertex="1">
          <mxGeometry x="1383.12" y="648.2" width="140" height="180" as="geometry">
            <mxRectangle x="670" y="80" width="100" height="30" as="alternateBounds" />
          </mxGeometry>
        </mxCell>
        <mxCell id="3TpKh58GNLnH1wsVVT6F-95" value="&lt;u&gt;Warehouse_id&lt;/u&gt;" style="text;strokeColor=none;fillColor=none;align=left;verticalAlign=middle;spacingLeft=4;spacingRight=4;overflow=hidden;points=[[0,0.5],[1,0.5]];portConstraint=eastwest;rotatable=0;whiteSpace=wrap;html=1;" parent="3TpKh58GNLnH1wsVVT6F-94" vertex="1">
          <mxGeometry y="30" width="140" height="30" as="geometry" />
        </mxCell>
        <mxCell id="3TpKh58GNLnH1wsVVT6F-96" value="Name" style="text;strokeColor=none;fillColor=none;align=left;verticalAlign=middle;spacingLeft=4;spacingRight=4;overflow=hidden;points=[[0,0.5],[1,0.5]];portConstraint=eastwest;rotatable=0;whiteSpace=wrap;html=1;" parent="3TpKh58GNLnH1wsVVT6F-94" vertex="1">
          <mxGeometry y="60" width="140" height="30" as="geometry" />
        </mxCell>
        <mxCell id="3TpKh58GNLnH1wsVVT6F-97" value="Location" style="text;strokeColor=none;fillColor=none;align=left;verticalAlign=middle;spacingLeft=4;spacingRight=4;overflow=hidden;points=[[0,0.5],[1,0.5]];portConstraint=eastwest;rotatable=0;whiteSpace=wrap;html=1;" parent="3TpKh58GNLnH1wsVVT6F-94" vertex="1">
          <mxGeometry y="90" width="140" height="30" as="geometry" />
        </mxCell>
        <mxCell id="3TpKh58GNLnH1wsVVT6F-106" value="Phone_number" style="text;strokeColor=none;fillColor=none;align=left;verticalAlign=middle;spacingLeft=4;spacingRight=4;overflow=hidden;points=[[0,0.5],[1,0.5]];portConstraint=eastwest;rotatable=0;whiteSpace=wrap;html=1;" parent="3TpKh58GNLnH1wsVVT6F-94" vertex="1">
          <mxGeometry y="120" width="140" height="30" as="geometry" />
        </mxCell>
        <mxCell id="3TpKh58GNLnH1wsVVT6F-182" value="Pincode" style="text;strokeColor=none;fillColor=none;align=left;verticalAlign=middle;spacingLeft=4;spacingRight=4;overflow=hidden;points=[[0,0.5],[1,0.5]];portConstraint=eastwest;rotatable=0;whiteSpace=wrap;html=1;" parent="3TpKh58GNLnH1wsVVT6F-94" vertex="1">
          <mxGeometry y="150" width="140" height="30" as="geometry" />
        </mxCell>
        <mxCell id="3TpKh58GNLnH1wsVVT6F-99" value="Employees" style="swimlane;fontStyle=0;childLayout=stackLayout;horizontal=1;startSize=30;horizontalStack=0;resizeParent=1;resizeParentMax=0;resizeLast=0;collapsible=1;marginBottom=0;whiteSpace=wrap;html=1;" parent="1" vertex="1">
          <mxGeometry x="1623.12" y="390" width="140" height="240" as="geometry" />
        </mxCell>
        <mxCell id="3TpKh58GNLnH1wsVVT6F-100" value="&lt;u&gt;Employee_id&lt;/u&gt;" style="text;strokeColor=none;fillColor=none;align=left;verticalAlign=middle;spacingLeft=4;spacingRight=4;overflow=hidden;points=[[0,0.5],[1,0.5]];portConstraint=eastwest;rotatable=0;whiteSpace=wrap;html=1;" parent="3TpKh58GNLnH1wsVVT6F-99" vertex="1">
          <mxGeometry y="30" width="140" height="30" as="geometry" />
        </mxCell>
        <mxCell id="3TpKh58GNLnH1wsVVT6F-101" value="Name" style="text;strokeColor=none;fillColor=none;align=left;verticalAlign=middle;spacingLeft=4;spacingRight=4;overflow=hidden;points=[[0,0.5],[1,0.5]];portConstraint=eastwest;rotatable=0;whiteSpace=wrap;html=1;" parent="3TpKh58GNLnH1wsVVT6F-99" vertex="1">
          <mxGeometry y="60" width="140" height="30" as="geometry" />
        </mxCell>
        <mxCell id="3TpKh58GNLnH1wsVVT6F-103" value="Role" style="text;strokeColor=none;fillColor=none;align=left;verticalAlign=middle;spacingLeft=4;spacingRight=4;overflow=hidden;points=[[0,0.5],[1,0.5]];portConstraint=eastwest;rotatable=0;whiteSpace=wrap;html=1;" parent="3TpKh58GNLnH1wsVVT6F-99" vertex="1">
          <mxGeometry y="90" width="140" height="30" as="geometry" />
        </mxCell>
        <mxCell id="jpYjTuSaJjB6TIMRzjhP-1" value="Email_id" style="text;strokeColor=none;fillColor=none;align=left;verticalAlign=middle;spacingLeft=4;spacingRight=4;overflow=hidden;points=[[0,0.5],[1,0.5]];portConstraint=eastwest;rotatable=0;whiteSpace=wrap;html=1;" parent="3TpKh58GNLnH1wsVVT6F-99" vertex="1">
          <mxGeometry y="120" width="140" height="30" as="geometry" />
        </mxCell>
        <mxCell id="3TpKh58GNLnH1wsVVT6F-104" value="Phone number" style="text;strokeColor=none;fillColor=none;align=left;verticalAlign=middle;spacingLeft=4;spacingRight=4;overflow=hidden;points=[[0,0.5],[1,0.5]];portConstraint=eastwest;rotatable=0;whiteSpace=wrap;html=1;" parent="3TpKh58GNLnH1wsVVT6F-99" vertex="1">
          <mxGeometry y="150" width="140" height="30" as="geometry" />
        </mxCell>
        <mxCell id="jpYjTuSaJjB6TIMRzjhP-3" value="Password" style="text;strokeColor=none;fillColor=none;align=left;verticalAlign=middle;spacingLeft=4;spacingRight=4;overflow=hidden;points=[[0,0.5],[1,0.5]];portConstraint=eastwest;rotatable=0;whiteSpace=wrap;html=1;" parent="3TpKh58GNLnH1wsVVT6F-99" vertex="1">
          <mxGeometry y="180" width="140" height="30" as="geometry" />
        </mxCell>
        <mxCell id="H35tAPve7KbWBrgySF72-1" value="Salary" style="text;strokeColor=none;fillColor=none;align=left;verticalAlign=middle;spacingLeft=4;spacingRight=4;overflow=hidden;points=[[0,0.5],[1,0.5]];portConstraint=eastwest;rotatable=0;whiteSpace=wrap;html=1;" parent="3TpKh58GNLnH1wsVVT6F-99" vertex="1">
          <mxGeometry y="210" width="140" height="30" as="geometry" />
        </mxCell>
        <mxCell id="3TpKh58GNLnH1wsVVT6F-107" value="working" style="shape=rhombus;perimeter=rhombusPerimeter;whiteSpace=wrap;html=1;align=center;" parent="1" vertex="1">
          <mxGeometry x="1633.12" y="698.2" width="120" height="60" as="geometry" />
        </mxCell>
        <mxCell id="3TpKh58GNLnH1wsVVT6F-112" value="inv_wd" style="shape=rhombus;perimeter=rhombusPerimeter;whiteSpace=wrap;html=1;align=center;" parent="1" vertex="1">
          <mxGeometry x="1170" y="698.2" width="123.12" height="60" as="geometry" />
        </mxCell>
        <mxCell id="3TpKh58GNLnH1wsVVT6F-134" value="" style="endArrow=none;html=1;rounded=0;entryX=0;entryY=0.5;entryDx=0;entryDy=0;" parent="1" target="3TpKh58GNLnH1wsVVT6F-107" edge="1">
          <mxGeometry relative="1" as="geometry">
            <mxPoint x="1521.12" y="728.2" as="sourcePoint" />
            <mxPoint x="1631.12" y="728.2" as="targetPoint" />
          </mxGeometry>
        </mxCell>
        <mxCell id="3TpKh58GNLnH1wsVVT6F-135" value="1" style="resizable=0;html=1;whiteSpace=wrap;align=right;verticalAlign=bottom;" parent="3TpKh58GNLnH1wsVVT6F-134" connectable="0" vertex="1">
          <mxGeometry x="1" relative="1" as="geometry">
            <mxPoint x="-88" y="-10" as="offset" />
          </mxGeometry>
        </mxCell>
        <mxCell id="3TpKh58GNLnH1wsVVT6F-137" value="" style="endArrow=none;html=1;rounded=0;shape=link;exitX=0.494;exitY=0.033;exitDx=0;exitDy=0;exitPerimeter=0;" parent="1" source="3TpKh58GNLnH1wsVVT6F-107" edge="1">
          <mxGeometry relative="1" as="geometry">
            <mxPoint x="1751.12" y="728.2" as="sourcePoint" />
            <mxPoint x="1691" y="630" as="targetPoint" />
          </mxGeometry>
        </mxCell>
        <mxCell id="3TpKh58GNLnH1wsVVT6F-138" value="M" style="resizable=0;html=1;whiteSpace=wrap;align=right;verticalAlign=bottom;" parent="3TpKh58GNLnH1wsVVT6F-137" connectable="0" vertex="1">
          <mxGeometry x="1" relative="1" as="geometry">
            <mxPoint x="-21" y="28" as="offset" />
          </mxGeometry>
        </mxCell>
        <mxCell id="3TpKh58GNLnH1wsVVT6F-139" value="" style="endArrow=none;html=1;rounded=0;" parent="1" edge="1">
          <mxGeometry relative="1" as="geometry">
            <mxPoint x="1293.12" y="727.87" as="sourcePoint" />
            <mxPoint x="1383.12" y="727.87" as="targetPoint" />
          </mxGeometry>
        </mxCell>
        <mxCell id="3TpKh58GNLnH1wsVVT6F-140" value="1" style="resizable=0;html=1;whiteSpace=wrap;align=right;verticalAlign=bottom;" parent="3TpKh58GNLnH1wsVVT6F-139" connectable="0" vertex="1">
          <mxGeometry x="1" relative="1" as="geometry">
            <mxPoint x="-34" y="-18" as="offset" />
          </mxGeometry>
        </mxCell>
        <mxCell id="3TpKh58GNLnH1wsVVT6F-145" value="" style="endArrow=none;html=1;rounded=0;shape=link;entryX=0.5;entryY=0;entryDx=0;entryDy=0;exitX=0.99;exitY=0.986;exitDx=0;exitDy=0;exitPerimeter=0;" parent="1" source="3TpKh58GNLnH1wsVVT6F-92" target="3TpKh58GNLnH1wsVVT6F-112" edge="1">
          <mxGeometry relative="1" as="geometry">
            <mxPoint x="1090" y="631.2" as="sourcePoint" />
            <mxPoint x="1100" y="521.2" as="targetPoint" />
            <Array as="points">
              <mxPoint x="1232" y="671.2" />
            </Array>
          </mxGeometry>
        </mxCell>
        <mxCell id="3TpKh58GNLnH1wsVVT6F-146" value="M" style="resizable=0;html=1;whiteSpace=wrap;align=right;verticalAlign=bottom;" parent="3TpKh58GNLnH1wsVVT6F-145" connectable="0" vertex="1">
          <mxGeometry x="1" relative="1" as="geometry">
            <mxPoint x="-102" as="offset" />
          </mxGeometry>
        </mxCell>
        <mxCell id="3TpKh58GNLnH1wsVVT6F-151" value="inv_sup" style="shape=rhombus;perimeter=rhombusPerimeter;whiteSpace=wrap;html=1;align=center;" parent="1" vertex="1">
          <mxGeometry x="730" y="571.2" width="120" height="60" as="geometry" />
        </mxCell>
        <mxCell id="3TpKh58GNLnH1wsVVT6F-152" value="Suppliers" style="swimlane;fontStyle=0;childLayout=stackLayout;horizontal=1;startSize=30;horizontalStack=0;resizeParent=1;resizeParentMax=0;resizeLast=0;collapsible=1;marginBottom=0;whiteSpace=wrap;html=1;" parent="1" vertex="1">
          <mxGeometry x="730" y="269.99999999999994" width="140" height="240" as="geometry" />
        </mxCell>
        <mxCell id="3TpKh58GNLnH1wsVVT6F-153" value="&lt;u&gt;Supplier_id&lt;/u&gt;" style="text;strokeColor=none;fillColor=none;align=left;verticalAlign=middle;spacingLeft=4;spacingRight=4;overflow=hidden;points=[[0,0.5],[1,0.5]];portConstraint=eastwest;rotatable=0;whiteSpace=wrap;html=1;" parent="3TpKh58GNLnH1wsVVT6F-152" vertex="1">
          <mxGeometry y="30" width="140" height="30" as="geometry" />
        </mxCell>
        <mxCell id="3TpKh58GNLnH1wsVVT6F-154" value="Name" style="text;strokeColor=none;fillColor=none;align=left;verticalAlign=middle;spacingLeft=4;spacingRight=4;overflow=hidden;points=[[0,0.5],[1,0.5]];portConstraint=eastwest;rotatable=0;whiteSpace=wrap;html=1;" parent="3TpKh58GNLnH1wsVVT6F-152" vertex="1">
          <mxGeometry y="60" width="140" height="30" as="geometry" />
        </mxCell>
        <mxCell id="3TpKh58GNLnH1wsVVT6F-155" value="Phone_number" style="text;strokeColor=none;fillColor=none;align=left;verticalAlign=middle;spacingLeft=4;spacingRight=4;overflow=hidden;points=[[0,0.5],[1,0.5]];portConstraint=eastwest;rotatable=0;whiteSpace=wrap;html=1;" parent="3TpKh58GNLnH1wsVVT6F-152" vertex="1">
          <mxGeometry y="90" width="140" height="30" as="geometry" />
        </mxCell>
        <mxCell id="3TpKh58GNLnH1wsVVT6F-179" value="Email_id" style="text;strokeColor=none;fillColor=none;align=left;verticalAlign=middle;spacingLeft=4;spacingRight=4;overflow=hidden;points=[[0,0.5],[1,0.5]];portConstraint=eastwest;rotatable=0;whiteSpace=wrap;html=1;" parent="3TpKh58GNLnH1wsVVT6F-152" vertex="1">
          <mxGeometry y="120" width="140" height="30" as="geometry" />
        </mxCell>
        <mxCell id="3TpKh58GNLnH1wsVVT6F-181" value="Password" style="text;strokeColor=none;fillColor=none;align=left;verticalAlign=middle;spacingLeft=4;spacingRight=4;overflow=hidden;points=[[0,0.5],[1,0.5]];portConstraint=eastwest;rotatable=0;whiteSpace=wrap;html=1;" parent="3TpKh58GNLnH1wsVVT6F-152" vertex="1">
          <mxGeometry y="150" width="140" height="30" as="geometry" />
        </mxCell>
        <mxCell id="3TpKh58GNLnH1wsVVT6F-156" value="Address" style="text;strokeColor=none;fillColor=none;align=left;verticalAlign=middle;spacingLeft=4;spacingRight=4;overflow=hidden;points=[[0,0.5],[1,0.5]];portConstraint=eastwest;rotatable=0;whiteSpace=wrap;html=1;" parent="3TpKh58GNLnH1wsVVT6F-152" vertex="1">
          <mxGeometry y="180" width="140" height="30" as="geometry" />
        </mxCell>
        <mxCell id="3TpKh58GNLnH1wsVVT6F-180" value="Pincode" style="text;strokeColor=none;fillColor=none;align=left;verticalAlign=middle;spacingLeft=4;spacingRight=4;overflow=hidden;points=[[0,0.5],[1,0.5]];portConstraint=eastwest;rotatable=0;whiteSpace=wrap;html=1;" parent="3TpKh58GNLnH1wsVVT6F-152" vertex="1">
          <mxGeometry y="210" width="140" height="30" as="geometry" />
        </mxCell>
        <mxCell id="3TpKh58GNLnH1wsVVT6F-157" value="" style="endArrow=none;html=1;rounded=0;exitX=0;exitY=0.5;exitDx=0;exitDy=0;shape=link;entryX=0.969;entryY=0.496;entryDx=0;entryDy=0;entryPerimeter=0;" parent="1" target="3TpKh58GNLnH1wsVVT6F-151" edge="1">
          <mxGeometry relative="1" as="geometry">
            <mxPoint x="950" y="601.2" as="sourcePoint" />
            <mxPoint x="820" y="601.2" as="targetPoint" />
          </mxGeometry>
        </mxCell>
        <mxCell id="3TpKh58GNLnH1wsVVT6F-158" value="1" style="resizable=0;html=1;whiteSpace=wrap;align=right;verticalAlign=bottom;" parent="3TpKh58GNLnH1wsVVT6F-157" connectable="0" vertex="1">
          <mxGeometry x="1" relative="1" as="geometry">
            <mxPoint x="-36" y="-70" as="offset" />
          </mxGeometry>
        </mxCell>
        <mxCell id="3TpKh58GNLnH1wsVVT6F-163" value="" style="endArrow=none;html=1;rounded=0;entryX=-0.015;entryY=0.294;entryDx=0;entryDy=0;exitX=1;exitY=0.5;exitDx=0;exitDy=0;entryPerimeter=0;" parent="1" source="3TpKh58GNLnH1wsVVT6F-85" target="3TpKh58GNLnH1wsVVT6F-93" edge="1">
          <mxGeometry relative="1" as="geometry">
            <mxPoint x="1000.1099999999999" y="521.2" as="sourcePoint" />
            <mxPoint x="949.9999999999998" y="670.7" as="targetPoint" />
          </mxGeometry>
        </mxCell>
        <mxCell id="3TpKh58GNLnH1wsVVT6F-164" value="1" style="resizable=0;html=1;whiteSpace=wrap;align=right;verticalAlign=bottom;" parent="3TpKh58GNLnH1wsVVT6F-163" connectable="0" vertex="1">
          <mxGeometry x="1" relative="1" as="geometry">
            <mxPoint x="-20" y="-5" as="offset" />
          </mxGeometry>
        </mxCell>
        <mxCell id="3TpKh58GNLnH1wsVVT6F-165" value="" style="endArrow=none;html=1;rounded=0;" parent="1" edge="1">
          <mxGeometry relative="1" as="geometry">
            <mxPoint x="789.5799999999999" y="571.2" as="sourcePoint" />
            <mxPoint x="789.5799999999999" y="511.2" as="targetPoint" />
          </mxGeometry>
        </mxCell>
        <mxCell id="3TpKh58GNLnH1wsVVT6F-166" value="M" style="resizable=0;html=1;whiteSpace=wrap;align=right;verticalAlign=bottom;" parent="3TpKh58GNLnH1wsVVT6F-165" connectable="0" vertex="1">
          <mxGeometry x="1" relative="1" as="geometry">
            <mxPoint x="145" y="85" as="offset" />
          </mxGeometry>
        </mxCell>
        <mxCell id="3TpKh58GNLnH1wsVVT6F-170" value="inv_prod" style="shape=rhombus;perimeter=rhombusPerimeter;whiteSpace=wrap;html=1;align=center;" parent="1" vertex="1">
          <mxGeometry x="1170" y="581.2" width="120" height="60" as="geometry" />
        </mxCell>
        <mxCell id="3TpKh58GNLnH1wsVVT6F-174" value="Products" style="swimlane;fontStyle=0;childLayout=stackLayout;horizontal=1;startSize=30;horizontalStack=0;resizeParent=1;resizeParentMax=0;resizeLast=0;collapsible=1;marginBottom=0;whiteSpace=wrap;html=1;" parent="1" vertex="1">
          <mxGeometry x="1170" y="359.99999999999994" width="140" height="150" as="geometry" />
        </mxCell>
        <mxCell id="3TpKh58GNLnH1wsVVT6F-175" value="&lt;u&gt;Product_id&lt;/u&gt;" style="text;strokeColor=none;fillColor=none;align=left;verticalAlign=middle;spacingLeft=4;spacingRight=4;overflow=hidden;points=[[0,0.5],[1,0.5]];portConstraint=eastwest;rotatable=0;whiteSpace=wrap;html=1;" parent="3TpKh58GNLnH1wsVVT6F-174" vertex="1">
          <mxGeometry y="30" width="140" height="30" as="geometry" />
        </mxCell>
        <mxCell id="3TpKh58GNLnH1wsVVT6F-176" value="Name" style="text;strokeColor=none;fillColor=none;align=left;verticalAlign=middle;spacingLeft=4;spacingRight=4;overflow=hidden;points=[[0,0.5],[1,0.5]];portConstraint=eastwest;rotatable=0;whiteSpace=wrap;html=1;" parent="3TpKh58GNLnH1wsVVT6F-174" vertex="1">
          <mxGeometry y="60" width="140" height="30" as="geometry" />
        </mxCell>
        <mxCell id="3TpKh58GNLnH1wsVVT6F-178" value="Category" style="text;strokeColor=none;fillColor=none;align=left;verticalAlign=middle;spacingLeft=4;spacingRight=4;overflow=hidden;points=[[0,0.5],[1,0.5]];portConstraint=eastwest;rotatable=0;whiteSpace=wrap;html=1;" parent="3TpKh58GNLnH1wsVVT6F-174" vertex="1">
          <mxGeometry y="90" width="140" height="30" as="geometry" />
        </mxCell>
        <mxCell id="3TpKh58GNLnH1wsVVT6F-183" value="Description" style="text;strokeColor=none;fillColor=none;align=left;verticalAlign=middle;spacingLeft=4;spacingRight=4;overflow=hidden;points=[[0,0.5],[1,0.5]];portConstraint=eastwest;rotatable=0;whiteSpace=wrap;html=1;" parent="3TpKh58GNLnH1wsVVT6F-174" vertex="1">
          <mxGeometry y="120" width="140" height="30" as="geometry" />
        </mxCell>
        <mxCell id="3TpKh58GNLnH1wsVVT6F-219" value="Shippings" style="swimlane;fontStyle=0;childLayout=stackLayout;horizontal=1;startSize=30;horizontalStack=0;resizeParent=1;resizeParentMax=0;resizeLast=0;collapsible=1;marginBottom=0;whiteSpace=wrap;html=1;" parent="1" vertex="1">
          <mxGeometry x="1175" y="858.2" width="140" height="150" as="geometry">
            <mxRectangle x="600" y="590" width="90" height="30" as="alternateBounds" />
          </mxGeometry>
        </mxCell>
        <mxCell id="3TpKh58GNLnH1wsVVT6F-220" value="Shipping_id" style="text;strokeColor=none;fillColor=none;align=left;verticalAlign=middle;spacingLeft=4;spacingRight=4;overflow=hidden;points=[[0,0.5],[1,0.5]];portConstraint=eastwest;rotatable=0;whiteSpace=wrap;html=1;fontStyle=4" parent="3TpKh58GNLnH1wsVVT6F-219" vertex="1">
          <mxGeometry y="30" width="140" height="30" as="geometry" />
        </mxCell>
        <mxCell id="3TpKh58GNLnH1wsVVT6F-223" value="Tracking_number" style="text;strokeColor=none;fillColor=none;align=left;verticalAlign=middle;spacingLeft=4;spacingRight=4;overflow=hidden;points=[[0,0.5],[1,0.5]];portConstraint=eastwest;rotatable=0;whiteSpace=wrap;html=1;" parent="3TpKh58GNLnH1wsVVT6F-219" vertex="1">
          <mxGeometry y="60" width="140" height="30" as="geometry" />
        </mxCell>
        <mxCell id="3TpKh58GNLnH1wsVVT6F-224" value="Shipping_status" style="text;strokeColor=none;fillColor=none;align=left;verticalAlign=middle;spacingLeft=4;spacingRight=4;overflow=hidden;points=[[0,0.5],[1,0.5]];portConstraint=eastwest;rotatable=0;whiteSpace=wrap;html=1;" parent="3TpKh58GNLnH1wsVVT6F-219" vertex="1">
          <mxGeometry y="90" width="140" height="30" as="geometry" />
        </mxCell>
        <mxCell id="3TpKh58GNLnH1wsVVT6F-221" value="Delivery_date" style="text;strokeColor=none;fillColor=none;align=left;verticalAlign=middle;spacingLeft=4;spacingRight=4;overflow=hidden;points=[[0,0.5],[1,0.5]];portConstraint=eastwest;rotatable=0;whiteSpace=wrap;html=1;" parent="3TpKh58GNLnH1wsVVT6F-219" vertex="1">
          <mxGeometry y="120" width="140" height="30" as="geometry" />
        </mxCell>
        <mxCell id="3TpKh58GNLnH1wsVVT6F-225" value="Orders" style="swimlane;fontStyle=0;childLayout=stackLayout;horizontal=1;startSize=30;horizontalStack=0;resizeParent=1;resizeParentMax=0;resizeLast=0;collapsible=1;marginBottom=0;whiteSpace=wrap;html=1;" parent="1" vertex="1">
          <mxGeometry x="700" y="858.2" width="140" height="150" as="geometry" />
        </mxCell>
        <mxCell id="3TpKh58GNLnH1wsVVT6F-226" value="&lt;u&gt;Order_id&lt;/u&gt;" style="text;strokeColor=none;fillColor=none;align=left;verticalAlign=middle;spacingLeft=4;spacingRight=4;overflow=hidden;points=[[0,0.5],[1,0.5]];portConstraint=eastwest;rotatable=0;whiteSpace=wrap;html=1;" parent="3TpKh58GNLnH1wsVVT6F-225" vertex="1">
          <mxGeometry y="30" width="140" height="30" as="geometry" />
        </mxCell>
        <mxCell id="3TpKh58GNLnH1wsVVT6F-228" value="Order_date" style="text;strokeColor=none;fillColor=none;align=left;verticalAlign=middle;spacingLeft=4;spacingRight=4;overflow=hidden;points=[[0,0.5],[1,0.5]];portConstraint=eastwest;rotatable=0;whiteSpace=wrap;html=1;" parent="3TpKh58GNLnH1wsVVT6F-225" vertex="1">
          <mxGeometry y="60" width="140" height="30" as="geometry" />
        </mxCell>
        <mxCell id="3TpKh58GNLnH1wsVVT6F-229" value="Total_amount" style="text;strokeColor=none;fillColor=none;align=left;verticalAlign=middle;spacingLeft=4;spacingRight=4;overflow=hidden;points=[[0,0.5],[1,0.5]];portConstraint=eastwest;rotatable=0;whiteSpace=wrap;html=1;" parent="3TpKh58GNLnH1wsVVT6F-225" vertex="1">
          <mxGeometry y="90" width="140" height="30" as="geometry" />
        </mxCell>
        <mxCell id="3TpKh58GNLnH1wsVVT6F-230" value="Order_status" style="text;strokeColor=none;fillColor=none;align=left;verticalAlign=middle;spacingLeft=4;spacingRight=4;overflow=hidden;points=[[0,0.5],[1,0.5]];portConstraint=eastwest;rotatable=0;whiteSpace=wrap;html=1;" parent="3TpKh58GNLnH1wsVVT6F-225" vertex="1">
          <mxGeometry y="120" width="140" height="30" as="geometry" />
        </mxCell>
        <mxCell id="3TpKh58GNLnH1wsVVT6F-231" value="Customers" style="swimlane;fontStyle=0;childLayout=stackLayout;horizontal=1;startSize=30;horizontalStack=0;resizeParent=1;resizeParentMax=0;resizeLast=0;collapsible=1;marginBottom=0;whiteSpace=wrap;html=1;" parent="1" vertex="1">
          <mxGeometry x="480" y="1028.2" width="140" height="300" as="geometry" />
        </mxCell>
        <mxCell id="3TpKh58GNLnH1wsVVT6F-232" value="&lt;u&gt;Customer_id&lt;/u&gt;" style="text;strokeColor=none;fillColor=none;align=left;verticalAlign=middle;spacingLeft=4;spacingRight=4;overflow=hidden;points=[[0,0.5],[1,0.5]];portConstraint=eastwest;rotatable=0;whiteSpace=wrap;html=1;" parent="3TpKh58GNLnH1wsVVT6F-231" vertex="1">
          <mxGeometry y="30" width="140" height="30" as="geometry" />
        </mxCell>
        <mxCell id="3TpKh58GNLnH1wsVVT6F-233" value="Name" style="text;strokeColor=none;fillColor=none;align=left;verticalAlign=middle;spacingLeft=4;spacingRight=4;overflow=hidden;points=[[0,0.5],[1,0.5]];portConstraint=eastwest;rotatable=0;whiteSpace=wrap;html=1;" parent="3TpKh58GNLnH1wsVVT6F-231" vertex="1">
          <mxGeometry y="60" width="140" height="30" as="geometry" />
        </mxCell>
        <mxCell id="3TpKh58GNLnH1wsVVT6F-235" value="Age" style="text;strokeColor=none;fillColor=none;align=left;verticalAlign=middle;spacingLeft=4;spacingRight=4;overflow=hidden;points=[[0,0.5],[1,0.5]];portConstraint=eastwest;rotatable=0;whiteSpace=wrap;html=1;" parent="3TpKh58GNLnH1wsVVT6F-231" vertex="1">
          <mxGeometry y="90" width="140" height="30" as="geometry" />
        </mxCell>
        <mxCell id="3TpKh58GNLnH1wsVVT6F-234" value="Pincode" style="text;strokeColor=none;fillColor=none;align=left;verticalAlign=middle;spacingLeft=4;spacingRight=4;overflow=hidden;points=[[0,0.5],[1,0.5]];portConstraint=eastwest;rotatable=0;whiteSpace=wrap;html=1;" parent="3TpKh58GNLnH1wsVVT6F-231" vertex="1">
          <mxGeometry y="120" width="140" height="30" as="geometry" />
        </mxCell>
        <mxCell id="3TpKh58GNLnH1wsVVT6F-236" value="Contact_number" style="text;strokeColor=none;fillColor=none;align=left;verticalAlign=middle;spacingLeft=4;spacingRight=4;overflow=hidden;points=[[0,0.5],[1,0.5]];portConstraint=eastwest;rotatable=0;whiteSpace=wrap;html=1;" parent="3TpKh58GNLnH1wsVVT6F-231" vertex="1">
          <mxGeometry y="150" width="140" height="30" as="geometry" />
        </mxCell>
        <mxCell id="3TpKh58GNLnH1wsVVT6F-267" value="Email_id" style="text;strokeColor=none;fillColor=none;align=left;verticalAlign=middle;spacingLeft=4;spacingRight=4;overflow=hidden;points=[[0,0.5],[1,0.5]];portConstraint=eastwest;rotatable=0;whiteSpace=wrap;html=1;" parent="3TpKh58GNLnH1wsVVT6F-231" vertex="1">
          <mxGeometry y="180" width="140" height="30" as="geometry" />
        </mxCell>
        <mxCell id="3TpKh58GNLnH1wsVVT6F-268" value="Password" style="text;strokeColor=none;fillColor=none;align=left;verticalAlign=middle;spacingLeft=4;spacingRight=4;overflow=hidden;points=[[0,0.5],[1,0.5]];portConstraint=eastwest;rotatable=0;whiteSpace=wrap;html=1;" parent="3TpKh58GNLnH1wsVVT6F-231" vertex="1">
          <mxGeometry y="210" width="140" height="30" as="geometry" />
        </mxCell>
        <mxCell id="3TpKh58GNLnH1wsVVT6F-237" value="BillingAddress" style="text;strokeColor=none;fillColor=none;align=left;verticalAlign=middle;spacingLeft=4;spacingRight=4;overflow=hidden;points=[[0,0.5],[1,0.5]];portConstraint=eastwest;rotatable=0;whiteSpace=wrap;html=1;" parent="3TpKh58GNLnH1wsVVT6F-231" vertex="1">
          <mxGeometry y="240" width="140" height="30" as="geometry" />
        </mxCell>
        <mxCell id="3TpKh58GNLnH1wsVVT6F-238" value="ShippingAddress" style="text;strokeColor=none;fillColor=none;align=left;verticalAlign=middle;spacingLeft=4;spacingRight=4;overflow=hidden;points=[[0,0.5],[1,0.5]];portConstraint=eastwest;rotatable=0;whiteSpace=wrap;html=1;" parent="3TpKh58GNLnH1wsVVT6F-231" vertex="1">
          <mxGeometry y="270" width="140" height="30" as="geometry" />
        </mxCell>
        <mxCell id="3TpKh58GNLnH1wsVVT6F-245" value="" style="endArrow=none;html=1;rounded=0;exitX=0.426;exitY=0.969;exitDx=0;exitDy=0;exitPerimeter=0;entryX=0.491;entryY=0.003;entryDx=0;entryDy=0;entryPerimeter=0;" parent="1" source="3TpKh58GNLnH1wsVVT6F-93" target="pDaNjG8lj1PzLGZHlgrG-6" edge="1">
          <mxGeometry relative="1" as="geometry">
            <mxPoint x="999.47" y="861.2" as="sourcePoint" />
            <mxPoint x="1000" y="1001.2" as="targetPoint" />
          </mxGeometry>
        </mxCell>
        <mxCell id="3TpKh58GNLnH1wsVVT6F-250" value="" style="endArrow=none;html=1;rounded=0;entryX=0;entryY=0.5;entryDx=0;entryDy=0;" parent="1" target="pDaNjG8lj1PzLGZHlgrG-6" edge="1">
          <mxGeometry relative="1" as="geometry">
            <mxPoint x="840" y="947.4300000000001" as="sourcePoint" />
            <mxPoint x="920" y="947.4300000000001" as="targetPoint" />
          </mxGeometry>
        </mxCell>
        <mxCell id="3TpKh58GNLnH1wsVVT6F-257" value="" style="endArrow=none;html=1;rounded=0;shape=link;exitX=0.974;exitY=0.496;exitDx=0;exitDy=0;exitPerimeter=0;" parent="1" source="pDaNjG8lj1PzLGZHlgrG-6" edge="1">
          <mxGeometry relative="1" as="geometry">
            <mxPoint x="1085" y="948.2" as="sourcePoint" />
            <mxPoint x="1175" y="948.2" as="targetPoint" />
          </mxGeometry>
        </mxCell>
        <mxCell id="3TpKh58GNLnH1wsVVT6F-258" value="M" style="resizable=0;html=1;whiteSpace=wrap;align=right;verticalAlign=bottom;" parent="3TpKh58GNLnH1wsVVT6F-257" connectable="0" vertex="1">
          <mxGeometry x="1" relative="1" as="geometry">
            <mxPoint x="-145" y="-141" as="offset" />
          </mxGeometry>
        </mxCell>
        <mxCell id="pDaNjG8lj1PzLGZHlgrG-7" value="M" style="resizable=0;html=1;whiteSpace=wrap;align=right;verticalAlign=bottom;" parent="3TpKh58GNLnH1wsVVT6F-257" connectable="0" vertex="1">
          <mxGeometry x="1" relative="1" as="geometry">
            <mxPoint x="-15" y="-10" as="offset" />
          </mxGeometry>
        </mxCell>
        <mxCell id="pDaNjG8lj1PzLGZHlgrG-9" value="M" style="resizable=0;html=1;whiteSpace=wrap;align=right;verticalAlign=bottom;" parent="3TpKh58GNLnH1wsVVT6F-257" connectable="0" vertex="1">
          <mxGeometry x="1" relative="1" as="geometry">
            <mxPoint x="-305" y="-10" as="offset" />
          </mxGeometry>
        </mxCell>
        <mxCell id="3TpKh58GNLnH1wsVVT6F-260" value="" style="endArrow=none;html=1;rounded=0;entryX=0.501;entryY=0.012;entryDx=0;entryDy=0;exitX=0.429;exitY=1.009;exitDx=0;exitDy=0;exitPerimeter=0;shape=link;entryPerimeter=0;" parent="1" target="3TpKh58GNLnH1wsVVT6F-262" edge="1">
          <mxGeometry relative="1" as="geometry">
            <mxPoint x="760" y="1008.2" as="sourcePoint" />
            <mxPoint x="920" y="1058.2" as="targetPoint" />
          </mxGeometry>
        </mxCell>
        <mxCell id="3TpKh58GNLnH1wsVVT6F-261" value="M" style="resizable=0;html=1;whiteSpace=wrap;align=right;verticalAlign=bottom;" parent="3TpKh58GNLnH1wsVVT6F-260" connectable="0" vertex="1">
          <mxGeometry x="1" relative="1" as="geometry">
            <mxPoint x="-20" y="-71" as="offset" />
          </mxGeometry>
        </mxCell>
        <mxCell id="3TpKh58GNLnH1wsVVT6F-262" value="ordered_by" style="shape=rhombus;perimeter=rhombusPerimeter;whiteSpace=wrap;html=1;align=center;" parent="1" vertex="1">
          <mxGeometry x="700" y="1108.2" width="120" height="60" as="geometry" />
        </mxCell>
        <mxCell id="3TpKh58GNLnH1wsVVT6F-263" value="" style="endArrow=none;html=1;rounded=0;entryX=0;entryY=0.5;entryDx=0;entryDy=0;exitX=0.994;exitY=0.687;exitDx=0;exitDy=0;exitPerimeter=0;" parent="1" source="3TpKh58GNLnH1wsVVT6F-235" target="3TpKh58GNLnH1wsVVT6F-262" edge="1">
          <mxGeometry relative="1" as="geometry">
            <mxPoint x="620" y="1136.3500000000001" as="sourcePoint" />
            <mxPoint x="707.06" y="1140.0400000000002" as="targetPoint" />
          </mxGeometry>
        </mxCell>
        <mxCell id="3TpKh58GNLnH1wsVVT6F-264" value="1" style="resizable=0;html=1;whiteSpace=wrap;align=right;verticalAlign=bottom;" parent="3TpKh58GNLnH1wsVVT6F-263" connectable="0" vertex="1">
          <mxGeometry x="1" relative="1" as="geometry">
            <mxPoint x="-50" y="-10" as="offset" />
          </mxGeometry>
        </mxCell>
        <mxCell id="pDaNjG8lj1PzLGZHlgrG-6" value="order_details" style="shape=rhombus;perimeter=rhombusPerimeter;whiteSpace=wrap;html=1;align=center;" parent="1" vertex="1">
          <mxGeometry x="935" y="913.2" width="150" height="70" as="geometry" />
        </mxCell>
        <mxCell id="pDaNjG8lj1PzLGZHlgrG-10" value="" style="shape=link;html=1;rounded=0;exitX=1;exitY=0.5;exitDx=0;exitDy=0;entryX=0.033;entryY=0.496;entryDx=0;entryDy=0;entryPerimeter=0;" parent="1" source="3TpKh58GNLnH1wsVVT6F-81" target="3TpKh58GNLnH1wsVVT6F-85" edge="1">
          <mxGeometry relative="1" as="geometry">
            <mxPoint x="730.56" y="631.2" as="sourcePoint" />
            <mxPoint x="890.56" y="631.2" as="targetPoint" />
          </mxGeometry>
        </mxCell>
        <mxCell id="pDaNjG8lj1PzLGZHlgrG-11" value="M" style="resizable=0;html=1;whiteSpace=wrap;align=right;verticalAlign=bottom;" parent="pDaNjG8lj1PzLGZHlgrG-10" connectable="0" vertex="1">
          <mxGeometry x="1" relative="1" as="geometry">
            <mxPoint x="-100" y="-11" as="offset" />
          </mxGeometry>
        </mxCell>
        <mxCell id="pDaNjG8lj1PzLGZHlgrG-15" value="" style="endArrow=none;html=1;rounded=0;exitX=0;exitY=1;exitDx=0;exitDy=0;dashed=1;dashPattern=8 8;entryX=0.5;entryY=0;entryDx=0;entryDy=0;" parent="1" source="pDaNjG8lj1PzLGZHlgrG-6" edge="1" target="pDaNjG8lj1PzLGZHlgrG-16">
          <mxGeometry relative="1" as="geometry">
            <mxPoint x="950" y="1058.2" as="sourcePoint" />
            <mxPoint x="1010" y="1108.2" as="targetPoint" />
          </mxGeometry>
        </mxCell>
        <mxCell id="pDaNjG8lj1PzLGZHlgrG-16" value="Quantity" style="rounded=1;arcSize=10;whiteSpace=wrap;html=1;align=center;" parent="1" vertex="1">
          <mxGeometry x="880" y="1137" width="100" height="40" as="geometry" />
        </mxCell>
        <mxCell id="t3k6a1OL7_UXYmhpZBFN-12" value="" style="endArrow=none;html=1;rounded=0;entryX=0.028;entryY=0.501;entryDx=0;entryDy=0;shape=link;exitX=0.998;exitY=0.015;exitDx=0;exitDy=0;exitPerimeter=0;entryPerimeter=0;" parent="1" source="3TpKh58GNLnH1wsVVT6F-88" target="3TpKh58GNLnH1wsVVT6F-170" edge="1">
          <mxGeometry relative="1" as="geometry">
            <mxPoint x="1302.1799999999998" y="181.2" as="sourcePoint" />
            <mxPoint x="1391" y="204.99999999999994" as="targetPoint" />
            <Array as="points" />
          </mxGeometry>
        </mxCell>
        <mxCell id="t3k6a1OL7_UXYmhpZBFN-13" value="M" style="resizable=0;html=1;whiteSpace=wrap;align=right;verticalAlign=bottom;" parent="t3k6a1OL7_UXYmhpZBFN-12" connectable="0" vertex="1">
          <mxGeometry x="1" relative="1" as="geometry">
            <mxPoint x="-33" y="-15" as="offset" />
          </mxGeometry>
        </mxCell>
        <mxCell id="t3k6a1OL7_UXYmhpZBFN-15" value="Prices" style="shape=rhombus;perimeter=rhombusPerimeter;whiteSpace=wrap;html=1;align=center;" parent="1" vertex="1">
          <mxGeometry x="960" y="375.2" width="120" height="60" as="geometry" />
        </mxCell>
        <mxCell id="t3k6a1OL7_UXYmhpZBFN-16" value="" style="endArrow=none;html=1;rounded=0;entryX=0;entryY=0.5;entryDx=0;entryDy=0;exitX=1;exitY=0.5;exitDx=0;exitDy=0;" parent="1" source="3TpKh58GNLnH1wsVVT6F-179" target="t3k6a1OL7_UXYmhpZBFN-15" edge="1">
          <mxGeometry relative="1" as="geometry">
            <mxPoint x="870" y="401.2" as="sourcePoint" />
            <mxPoint x="1030" y="401.2" as="targetPoint" />
          </mxGeometry>
        </mxCell>
        <mxCell id="t3k6a1OL7_UXYmhpZBFN-17" value="M" style="resizable=0;html=1;whiteSpace=wrap;align=right;verticalAlign=bottom;" parent="t3k6a1OL7_UXYmhpZBFN-16" connectable="0" vertex="1">
          <mxGeometry x="1" relative="1" as="geometry">
            <mxPoint x="-60" y="-14" as="offset" />
          </mxGeometry>
        </mxCell>
        <mxCell id="t3k6a1OL7_UXYmhpZBFN-18" value="" style="endArrow=none;html=1;rounded=0;exitX=1;exitY=0.5;exitDx=0;exitDy=0;entryX=0;entryY=0.5;entryDx=0;entryDy=0;" parent="1" source="t3k6a1OL7_UXYmhpZBFN-15" target="3TpKh58GNLnH1wsVVT6F-175" edge="1">
          <mxGeometry relative="1" as="geometry">
            <mxPoint x="1070" y="401.2" as="sourcePoint" />
            <mxPoint x="1230" y="401.2" as="targetPoint" />
          </mxGeometry>
        </mxCell>
        <mxCell id="t3k6a1OL7_UXYmhpZBFN-19" value="M" style="resizable=0;html=1;whiteSpace=wrap;align=right;verticalAlign=bottom;" parent="t3k6a1OL7_UXYmhpZBFN-18" connectable="0" vertex="1">
          <mxGeometry x="1" relative="1" as="geometry">
            <mxPoint x="-20" y="-15" as="offset" />
          </mxGeometry>
        </mxCell>
        <mxCell id="t3k6a1OL7_UXYmhpZBFN-20" value="Unit_price" style="whiteSpace=wrap;html=1;align=center;" parent="1" vertex="1">
          <mxGeometry x="970" y="271.2" width="100" height="40" as="geometry" />
        </mxCell>
        <mxCell id="t3k6a1OL7_UXYmhpZBFN-22" value="" style="endArrow=none;html=1;rounded=0;exitX=0.5;exitY=1;exitDx=0;exitDy=0;dashed=1;dashPattern=8 8;entryX=0.5;entryY=0;entryDx=0;entryDy=0;" parent="1" source="t3k6a1OL7_UXYmhpZBFN-20" target="t3k6a1OL7_UXYmhpZBFN-15" edge="1">
          <mxGeometry relative="1" as="geometry">
            <mxPoint x="1010" y="342.7" as="sourcePoint" />
            <mxPoint x="1010" y="467.7" as="targetPoint" />
          </mxGeometry>
        </mxCell>
        <mxCell id="t3k6a1OL7_UXYmhpZBFN-26" value="" style="endArrow=none;html=1;rounded=0;entryX=0.429;entryY=1.04;entryDx=0;entryDy=0;entryPerimeter=0;" parent="1" target="3TpKh58GNLnH1wsVVT6F-183" edge="1">
          <mxGeometry relative="1" as="geometry">
            <mxPoint x="1230" y="581.2" as="sourcePoint" />
            <mxPoint x="1390" y="581.2" as="targetPoint" />
          </mxGeometry>
        </mxCell>
        <mxCell id="t3k6a1OL7_UXYmhpZBFN-27" value="1" style="resizable=0;html=1;whiteSpace=wrap;align=right;verticalAlign=bottom;" parent="t3k6a1OL7_UXYmhpZBFN-26" connectable="0" vertex="1">
          <mxGeometry x="1" relative="1" as="geometry">
            <mxPoint x="-10" y="29" as="offset" />
          </mxGeometry>
        </mxCell>
        <mxCell id="y51FlVPWXr9P_Kgr6_KO-1" value="" style="endArrow=none;html=1;rounded=0;exitX=0.705;exitY=0.794;exitDx=0;exitDy=0;dashed=1;dashPattern=8 8;exitPerimeter=0;" edge="1" parent="1" source="pDaNjG8lj1PzLGZHlgrG-6">
          <mxGeometry relative="1" as="geometry">
            <mxPoint x="1041.75" y="966" as="sourcePoint" />
            <mxPoint x="1110" y="1137" as="targetPoint" />
          </mxGeometry>
        </mxCell>
        <mxCell id="y51FlVPWXr9P_Kgr6_KO-2" value="Amount" style="rounded=1;arcSize=10;whiteSpace=wrap;html=1;align=center;" vertex="1" parent="1">
          <mxGeometry x="1060" y="1137" width="100" height="40" as="geometry" />
        </mxCell>
        <mxCell id="y51FlVPWXr9P_Kgr6_KO-3" value="Shipping_details" style="shape=rhombus;perimeter=rhombusPerimeter;whiteSpace=wrap;html=1;align=center;" vertex="1" parent="1">
          <mxGeometry x="1393" y="918" width="120" height="60" as="geometry" />
        </mxCell>
        <mxCell id="y51FlVPWXr9P_Kgr6_KO-6" value="" style="endArrow=none;html=1;rounded=0;exitX=1.004;exitY=0.007;exitDx=0;exitDy=0;entryX=0.028;entryY=0.497;entryDx=0;entryDy=0;exitPerimeter=0;shape=link;entryPerimeter=0;" edge="1" parent="1" source="3TpKh58GNLnH1wsVVT6F-224" target="y51FlVPWXr9P_Kgr6_KO-3">
          <mxGeometry relative="1" as="geometry">
            <mxPoint x="1310" y="950" as="sourcePoint" />
            <mxPoint x="1390" y="948" as="targetPoint" />
          </mxGeometry>
        </mxCell>
        <mxCell id="y51FlVPWXr9P_Kgr6_KO-7" value="M" style="resizable=0;html=1;whiteSpace=wrap;align=right;verticalAlign=bottom;" connectable="0" vertex="1" parent="y51FlVPWXr9P_Kgr6_KO-6">
          <mxGeometry x="1" relative="1" as="geometry">
            <mxPoint x="-53" y="-8" as="offset" />
          </mxGeometry>
        </mxCell>
        <mxCell id="y51FlVPWXr9P_Kgr6_KO-8" value="" style="endArrow=none;html=1;rounded=0;exitX=0.5;exitY=0;exitDx=0;exitDy=0;entryX=0.5;entryY=1;entryDx=0;entryDy=0;" edge="1" parent="1" source="y51FlVPWXr9P_Kgr6_KO-3" target="3TpKh58GNLnH1wsVVT6F-94">
          <mxGeometry relative="1" as="geometry">
            <mxPoint x="1450" y="920" as="sourcePoint" />
            <mxPoint x="1610" y="920" as="targetPoint" />
          </mxGeometry>
        </mxCell>
        <mxCell id="y51FlVPWXr9P_Kgr6_KO-9" value="M" style="resizable=0;html=1;whiteSpace=wrap;align=right;verticalAlign=bottom;" connectable="0" vertex="1" parent="y51FlVPWXr9P_Kgr6_KO-8">
          <mxGeometry x="1" relative="1" as="geometry">
            <mxPoint x="-13" y="30" as="offset" />
          </mxGeometry>
        </mxCell>
        <mxCell id="y51FlVPWXr9P_Kgr6_KO-10" value="" style="endArrow=none;html=1;rounded=0;exitX=0.705;exitY=0.794;exitDx=0;exitDy=0;dashed=1;dashPattern=8 8;exitPerimeter=0;" edge="1" parent="1">
          <mxGeometry relative="1" as="geometry">
            <mxPoint x="1454.12" y="978.22" as="sourcePoint" />
            <mxPoint x="1454" y="1060" as="targetPoint" />
          </mxGeometry>
        </mxCell>
        <mxCell id="y51FlVPWXr9P_Kgr6_KO-11" value="Shipping_date" style="rounded=1;arcSize=10;whiteSpace=wrap;html=1;align=center;" vertex="1" parent="1">
          <mxGeometry x="1403" y="1060" width="100" height="40" as="geometry" />
        </mxCell>
        <mxCell id="y51FlVPWXr9P_Kgr6_KO-14" value="" style="endArrow=none;html=1;rounded=0;exitX=0.41;exitY=-0.005;exitDx=0;exitDy=0;exitPerimeter=0;" edge="1" parent="1" source="3TpKh58GNLnH1wsVVT6F-94">
          <mxGeometry relative="1" as="geometry">
            <mxPoint x="1440" y="600.99" as="sourcePoint" />
            <mxPoint x="1440" y="560" as="targetPoint" />
          </mxGeometry>
        </mxCell>
        <mxCell id="y51FlVPWXr9P_Kgr6_KO-15" value="1" style="resizable=0;html=1;whiteSpace=wrap;align=right;verticalAlign=bottom;" connectable="0" vertex="1" parent="y51FlVPWXr9P_Kgr6_KO-14">
          <mxGeometry x="1" relative="1" as="geometry">
            <mxPoint x="-20" y="73" as="offset" />
          </mxGeometry>
        </mxCell>
        <mxCell id="y51FlVPWXr9P_Kgr6_KO-16" value="manages" style="shape=rhombus;perimeter=rhombusPerimeter;whiteSpace=wrap;html=1;align=center;" vertex="1" parent="1">
          <mxGeometry x="1380" y="500.00000000000006" width="120" height="60" as="geometry" />
        </mxCell>
        <mxCell id="y51FlVPWXr9P_Kgr6_KO-17" value="" style="endArrow=none;html=1;rounded=0;entryX=0.002;entryY=0.709;entryDx=0;entryDy=0;entryPerimeter=0;" edge="1" parent="1" target="jpYjTuSaJjB6TIMRzjhP-1">
          <mxGeometry relative="1" as="geometry">
            <mxPoint x="1500" y="530" as="sourcePoint" />
            <mxPoint x="1611.88" y="529.8" as="targetPoint" />
          </mxGeometry>
        </mxCell>
        <mxCell id="y51FlVPWXr9P_Kgr6_KO-18" value="1" style="resizable=0;html=1;whiteSpace=wrap;align=right;verticalAlign=bottom;" connectable="0" vertex="1" parent="y51FlVPWXr9P_Kgr6_KO-17">
          <mxGeometry x="1" relative="1" as="geometry">
            <mxPoint x="-13" y="-6" as="offset" />
          </mxGeometry>
        </mxCell>
      </root>
    </mxGraphModel>
  </diagram>
</mxfile>
